<svg version="1.1" xmlns="http://www.w3.org/2000/svg" xmlns:xlink="http://www.w3.org/1999/xlink" x="0px" y="0px" style="enable-background:new 0 0 1000 1000;" xml:space="preserve" viewBox="338.2 431.94 103.5 136.75">    <path xmlns="http://www.w3.org/2000/svg" style="fill:#F0E2DB;" d="M437.3,459.1c-1.5,0.3-2.1,1.3-2.7,2.5c-0.6,1.2-1.3,2.2-2.1,3.3c-0.5-0.4-1-0.9-1.4-1.4    c-0.7-0.8-1.4-1.6-2.1-2.4c0.6-0.6,1.2-1.1,1.8-1.7c0,0,0.2-0.2,0.3-0.2c0.1-0.1,0.5-0.3,0.5-0.3c0.6-0.3,1.2-0.7,1.8-1.2    c1.4-1.2,1.4-3.7,0-4.9c-1.4-1.3-3.5-1.3-4.9,0c0.4-0.3,0-0.1-0.2,0.1c-0.2,0.1-0.4,0.2-0.6,0.3c-0.6,0.4-1.2,0.9-1.8,1.4    c-0.6,0.5-1.2,1-1.7,1.6c-1.4-1.3-2.9-2.6-4.4-4c0.1-0.1,0.2-0.2,0.3-0.3c0.3-0.3,0.6-0.6,0.9-1c0.6-0.6,1.2-1.2,1.8-1.8    c1.3-1.3,1.4-3.7,0-4.9c-1.4-1.3-3.6-1.4-4.9,0c-1,1-2,2-3,3.1c-1.7-1.8-3.3-3.6-4.8-5.4c1-0.8,2.6-2.6,3.8-2.9    c1.1-0.3,2.2-1.3,2.4-2.4c0-0.1,0-0.2,0.1-0.3c0.8-3.8-4.1-5.7-6.1-3.3c-2.6,1.3-5.1,3.8-7.1,5.6c-1.3,1.2-2.4,2.6-3.8,3.7    c-1.5,1.2-3.1,1.9-4.3,3.3c-0.5,0.6-0.7,1.2-0.8,1.9c-8.1-0.8-12.7,6.8-17.9,12.8c-6.4,7.4-12,16.2-16.9,24.6    c-6,10.1-13.8,18.6-18.6,29.4c-2.8,6.3-4.6,17.5,0.7,23.5c-0.4,1-0.8,2-1.1,2.8c-1.7,4.3-2,7.9-0.3,12.3c3,7.9,8.5,13.8,17,15.4    c10.1,1.9,19.6-3.7,28.6-7.5c5.2-2.2,9.2-5.2,13.9-8.1c2.9-1.8,6-3.7,8.1-6.4c1.8,1.7,3.8,3.2,5.9,4c2.4,0.9,3.5,0.3,5.4-1.2    c2.5-2.1,5.3-3.8,7.7-6.1c3.1-3-1.4-7.7-4.6-5.2c-3.1-3.7-6.5-7.2-9.9-10.5c0.1-0.1,0.2-0.2,0.3-0.3c3.1-3.3-1.9-8.2-4.9-4.9    c-1.6,1.7-3.5,3-5.2,4.6c-1.5,1.5-3.4,3.3-4.1,5.3c-0.1,0.3-0.1,0.5-0.2,0.8c-0.6,1.2-0.5,2.6,0.7,3.8c1.4,1.4,2.8,3.1,4.3,4.8    c-0.1,0.1-0.3,0.2-0.4,0.3c-0.7,0.5-1.1,1.1-1.4,1.7c-1.6,1.6-4.1,2.8-5.8,3.9c-3,1.9-5.6,4.3-8.9,5.9c-3.4,1.7-7,3-10.5,4.5    c-3.3,1.4-7.3,3.3-10.7,4.1c-5.8,1.5-12.8-1-16.2-6c-2.1-3.1-4-7.1-2.8-10.8c0.1-0.5,0.4-1.5,0.8-2.6c1.1,1.4,2.3,2.5,4.7,3.4    c3.9,1.5,7.9,0.7,11.6-1c9-4.2,14.4-12,21-19c3.2-3.4,6.9-6.2,10.2-9.5c3.8-3.9,7.3-7.4,12.1-10c8.1-4.3,17.8-9.4,22.2-18    c1.4-2.7,1.3-5.5,0.5-8.3c2.5-2.5,4.7-5.2,6.7-8c1.5-2.1,3-4,4.2-6.1C443.1,463.5,441.2,458.3,437.3,459.1z M406.1,532.3    c0.3-0.3,0.5-0.5,0.8-0.8c3.3,3.2,6.7,6.6,9.7,10.2c-0.4,0.3-0.8,0.7-1.2,1.1c-3.7-2.7-6.8-6.4-9.9-9.8    C405.7,532.7,405.9,532.5,406.1,532.3z M386.5,513.8c-3.2,2.9-6.3,5.5-9.1,8.7c-2.9,3.2-5.3,7-8.7,9.7c-3.1,2.4-6.3,5.2-10.1,6.3    c-5.4,1.6-6.5-1.9-9.3-5.3c-0.7-0.8-1.7-1.1-2.8-1c-1.5-2.3-1.7-6.4-1.5-8.4c0.4-4.5,2.8-8.8,4.9-12.7c3.6-6.8,8.8-12.2,12.9-18.6    c1.8-2.8,3.6-5.5,5.3-8.3c4.9,3.7,9.4,8.5,14,12.6c3.8,3.4,7.5,6.8,11.2,10.2C391.1,509.3,388.9,511.7,386.5,513.8z M421.2,486.8    c-5.2,6.5-12.4,9.7-19.4,13.7c-1.1,0.6-2.1,1.3-3.1,2c-4.3-3.9-8.6-7.8-12.9-11.7c-4.5-4-9-8.7-13.8-12.3c1.4-2.1,2.8-4.2,4.2-6.3    c2-2.9,3.8-5.7,6.1-8.4c2.4-2.8,4.8-6.8,7.9-8.9c5.9-4,17,6.3,20.7,10.4c3,3.3,5.5,6.9,8.1,10.5c0.9,1.2,2,2.4,2.8,3.8    C423.5,482.5,423.2,484.2,421.2,486.8z M426.1,472.9c-2-2.8-4.3-5.4-6-7.6c-4.9-6.3-11.4-12.6-18.9-16c0.7-0.5,1.4-0.9,2-1.4    c0.6-0.5,1.2-1,1.7-1.5c3.6,4.3,7.7,8.1,11.6,12.1c2.3,2.3,4.8,4.3,7,6.7c1.1,1.2,1.9,2.6,3,3.8c0.2,0.3,1.2,0.9,1.8,1.3    C427.6,471.2,426.8,472,426.1,472.9z"></path>    <path xmlns="http://www.w3.org/2000/svg" style="fill:#F0E2DB;" d="M403.2,467.9c-0.3,0-0.5,0-0.7,0c-1.5-0.1-3-0.8-4.5-1c-1.7-0.2-3.3-0.1-4.9,0.5    c-3.1,1.2-5.1,4.3-6.2,7.4c-2.1,6.2,1.5,12.9,7.3,15.4c5.8,2.5,13.3-1.3,15.3-7.1C411.5,477.6,410.2,468.7,403.2,467.9z     M402.2,482.1c-2,2.4-5.3,2.4-7.3,0.2c-1.9-1.9-2.3-5.9,0-7.9c2.1-1.7,5.3,0.3,7.7,0.4c0.2,0,0.3,0,0.5,0c0.1,0,0.1,0,0.2,0    c-0.9-0.1,0.1,1.9,0.1,2.8C403.5,479.2,403.2,480.9,402.2,482.1z"></path> </svg>