<svg version="1.1" xmlns="http://www.w3.org/2000/svg" xmlns:xlink="http://www.w3.org/1999/xlink" x="0px" y="0px" style="enable-background:new 0 0 1000 1000;" xml:space="preserve" viewBox="560.22 758.86 107.52 107.09">    <path style="fill:#F0E2DB;" d="M661.9,809.8c-6.2-5.8-12.9-4-18.6,0.3c-3.2-0.7-6.2-1.7-9.3-2.8c0.3-0.3,0.7-0.6,1-0.9 			c0.8-0.4,1.5-1,1.9-1.8c0.7-0.7,1.5-1.5,2.2-2.3c5.2-5.7,10.4-11.4,15.6-17.1c2.8-3.1,8.9-8.8,6.9-13.4c-1-2.4-3.3-4.3-5.1-6 			c-2.2-2.2-4.4-5.1-7.2-6.5c-1.7-0.9-3.7-0.4-4.8,1.3c-0.1,0.1-0.2,0.2-0.2,0.4c-1.5,2.4,0.4,4.8,2.6,5.1c1.7,1.3,3.3,3.3,4.7,4.7 			c0.7,0.7,1.8,1.4,2.3,2.3c0.3,0.6,0.4,0.8,0.6,0.9c-0.1,0-0.3,0.3-0.5,0.9c-0.6,1.7-2,3.2-3.4,4.6c-3.1-3.6-6.1-7.3-9.2-10.8 			c-3-3.4-7.9,1.6-4.9,4.9c3.2,3.7,6.2,7.5,9.5,11.2c-1,1.2-2,2.4-3.1,3.5c-0.4,0.5-0.9,0.9-1.3,1.4c-1.8-1.8-3.8-3.4-5.7-5 			c-2.2-1.8-4.5-4-7.3-5c-4.2-1.6-6.1,5.2-1.9,6.7c0.9,0.3,1.7,1.3,2.5,1.9c1,0.8,2.1,1.6,3.1,2.5c1.5,1.3,3.1,2.6,4.5,4 			c-0.9,1-1.9,2-2.8,3c-1.3-1.1-2.7-2.1-3.8-3.1c-3-2.7-5.5-5.9-8.6-8.5c-3.4-2.9-8.4,2-4.9,4.9c2.6,2.2,4.7,4.8,7.2,7.2 			c1.1,1.1,2.4,2.1,3.6,3.2c0.3,0.2,1,0.7,1.6,1.3c-0.6,0.6-1.2,1.1-1.8,1.7c-1.3-0.6-2.7-1.2-4-1.9c-6.1-2.9-12.4-7-17.8-11.2 			c-10.8-8.5-22.1-17.4-31.8-27.2c-1.7-1.7-3.8-1.1-5,0.3c-2.2,0.7-3.8,3.7-1.6,5.8c9.9,10,20.7,18.9,29.2,30.2 			c0.8,1.1,1.6,2.1,2.4,3.2c-2.6-0.1-5,3.4-2.8,6.1c2.6,3.1,5.5,5.9,8.7,8.4c1.3,1,2.6,1.8,3.9,2.8c0.3,0.2,0.5,0.4,0.7,0.6 			c-1.1,1.2-2.3,2.4-3.4,3.5c-2-1.7-3.9-3.5-5.9-5.2c-1.3-1.1-2.5-2.3-3.9-3.4c-0.3-0.3-2.3-1.6-2.3-1.7c-0.7-4.4-7.5-2.6-6.7,1.9 			c0.5,3,4.1,4.8,6.2,6.6c2.6,2.3,5.1,4.6,7.7,6.9c-1.2,1.3-2.4,2.5-3.6,3.8c-0.1-0.1-0.2-0.2-0.3-0.3c-0.9-0.9-1.9-1.8-2.8-2.7 			c-3.2-3.1-6.4-5.9-9.8-8.7c-3.5-2.8-8.4,2.1-4.9,4.9c4.2,3.4,8,6.8,11.9,10.6c0.4,0.4,0.8,0.8,1.2,1.2c-0.5,0.5-1,1.1-1.6,1.6 			c-0.5,0.5-0.9,0.9-1.3,1.4c-2.1-1.7-4.3-3.3-6.4-5.1c-1.5-1.2-3.1-2.3-4.4-3.6c-1.2-1.3-1.9-2.5-3.8-2.9c-4.4-0.8-6.3,5.9-1.9,6.7 			c0.1,0,1.6,1.9,2,2.3c1.6,1.3,3.2,2.5,4.8,3.8c1.7,1.3,3.3,2.5,4.8,3.8c-1.3,1.4-4.6,5.2-6.3,5.2c-1.5,0-3.3-3-4.2-4 			c-2.5-2.6-5.2-4.9-7.4-7.8c-2.7-3.6-8.7-0.1-6,3.5c2.2,2.9,4.7,5.5,7.3,8c2,2,3.7,4.6,6.2,6.1c4.9,3.1,9.6-0.8,13.2-4.1 			c4.1-3.8,8.1-7.8,11.9-11.9c0.1,0,0.1,0,0.2,0c1.3-0.3,2.3-1.5,2.5-2.8c3.6-3.8,7.1-7.7,10.7-11.5c1.1,2.8,2.2,6.2,2.3,8.9 			c-6,4-6.4,14.1-3,19.8c4.6,7.8,15.1,12.7,23.2,7.2c8.1-5.6,8.2-16.7,3.2-24.3c-3.9-5.9-10.6-7.9-16.7-6.1c-0.6-3.7-2-7.6-3.6-11.1 			c1.2-1.2,2.4-2.4,3.6-3.6c2.1-2,4.2-4,6.4-5.9c3.4,1.4,6.8,2.5,10.3,3.4c-2.3,5.5-0.8,13.8,2.8,17.5c5.8,6.1,17,5.8,22.5-0.5 			C669.8,825.9,668.7,816.2,661.9,809.8z M614.8,815.5c-1.3-2.3-2.7-4.5-4.2-6.7c2.1,1.5,4.2,3.1,6.1,4.8 			C616,814.3,615.4,814.9,614.8,815.5z M618.5,842.8c0.6-0.1,1.3-0.4,1.9-0.9c9-8.4,19.5,7.8,11.6,15.3c-3.8,3.7-9.1,1.4-12.3-2 			c-1.7-1.8-3-4-3.1-6.5C616.7,847.4,617.2,844.2,618.5,842.8z M658.7,828c-2.7,3.5-8.6,4.1-12.1,1.1c-3.3-2.8-2.4-7.6-1.1-11.3 			c0.5-0.4,0.9-0.9,1-1.5c2.8-2.6,6.3-4.8,9.8-2.1C660.8,817.7,662.3,823.4,658.7,828z"></path> </svg>